# xmcd
#
# Track frame offsets: 
#        150
#        9490
#        22282
#        36195
#        48727
#        63542
#        80920
#        95915
#        112670
#        132430
#        149270
#        165167
#        182147
#        197232
#        216782
#        237695
#        258917
#        275705
#        299695
#        317454
#        328954
#
# Disc length: 4636 seconds
#
# Revision: 0
# Processed by: cddbd v1.5.2PL0 Copyright (c) Steve Scherf et al.
# Submitted via: ExactAudioCopyFreeDBPlugin 1.0
#
DISCID=4f121a15
DTITLE=Gladys Knight and The Pips - The Essential Collection
DYEAR=1999
DGENRE=Soul
TTITLE0=Every Beat Of My Heart
TTITLE1=Letter Full Of Tears
TTITLE2=Giving Up
TTITLE3=I Heard It Through The Grapevine
TTITLE4=If I Were Your Woman
TTITLE5=Friendship Train
TTITLE6=I Don't Want To Do Wrong
TTITLE7=Daddy Could Swear, I Declare
TTITLE8=Neither One Of Us (Wants To Be The First To Say Goodbye)
TTITLE9=Midnight Train To Georgia
TTITLE10=I've Got To Use My Imagination
TTITLE11=The Best Thing That Ever Happened To Me
TTITLE12=I Feel A Song (In My Heart)
TTITLE13=On And On
TTITLE14=The Way We Were - Try To Remember
TTITLE15=Save The Overtime (For Me)
TTITLE16=Hero (Wind Beneath My Wings)
TTITLE17=Love Overboard
TTITLE18=Love Finds Its Own Way
TTITLE19=Part Time Love
TTITLE20=Sorry Doesn't Always Make It Right
EXTD=
EXTT0=
EXTT1=
EXTT2=
EXTT3=
EXTT4=
EXTT5=
EXTT6=
EXTT7=
EXTT8=
EXTT9=
EXTT10=
EXTT11=
EXTT12=
EXTT13=
EXTT14=
EXTT15=
EXTT16=
EXTT17=
EXTT18=
EXTT19=
EXTT20=
PLAYORDER=
